<svg viewBox="0 0 106 110" fill="none" xmlns="http://www.w3.org/2000/svg">
<path d="M27 22H106C106 37.464 93.464 50 78 50H27V22Z" fill="url(#paint0_linear_1_24)"/>
<path d="M35 56H88C88 71.464 75.464 84 60 84H35V56Z" fill="url(#paint1_linear_1_24)"/>
<path d="M0 76C0 61.0883 12.0883 49 27 49H28V76H0Z" fill="url(#paint2_linear_1_24)"/>
<path d="M8 99C8 90.1634 15.1634 83 24 83H36V110H8V99Z" fill="url(#paint3_linear_1_24)"/>
<defs>
<linearGradient id="paint0_linear_1_24" x1="67.6179" y1="15" x2="67.4141" y2="50.0053" gradientUnits="userSpaceOnUse">
<stop stop-color="#8BC7FF"/>
<stop offset="1" stop-color="white"/>
</linearGradient>
<linearGradient id="paint1_linear_1_24" x1="62.25" y1="49" x2="61.9462" y2="84.0039" gradientUnits="userSpaceOnUse">
<stop stop-color="#8BC7FF"/>
<stop offset="1" stop-color="white"/>
</linearGradient>
<linearGradient id="paint2_linear_1_24" x1="14.3962" y1="42.25" x2="13.8617" y2="75.9978" gradientUnits="userSpaceOnUse">
<stop stop-color="#8BC7FF"/>
<stop offset="1" stop-color="white"/>
</linearGradient>
<linearGradient id="paint3_linear_1_24" x1="22.3962" y1="76.25" x2="21.8617" y2="109.998" gradientUnits="userSpaceOnUse">
<stop stop-color="#8BC7FF"/>
<stop offset="1" stop-color="white"/>
</linearGradient>
</defs>
</svg>
