<svg width="506" height="132" viewBox="0 0 506 132" fill="none" xmlns="http://www.w3.org/2000/svg">
<path d="M27 22H106C106 37.464 93.464 50 78 50H27V22Z" fill="url(#paint0_linear_1_24)"/>
<path d="M35 56H88C88 71.464 75.464 84 60 84H35V56Z" fill="url(#paint1_linear_1_24)"/>
<path d="M0 76C0 61.0883 12.0883 49 27 49H28V76H0Z" fill="url(#paint2_linear_1_24)"/>
<path d="M8 99C8 90.1634 15.1634 83 24 83H36V110H8V99Z" fill="url(#paint3_linear_1_24)"/>
<path d="M162.716 35.6616V43.8695H136.681V61.9621H156.98V70.17H136.681V97H126.619V35.6616H162.716ZM193.134 97.7943C188.544 97.7943 184.396 96.7646 180.69 94.7053C176.983 92.5872 174.07 89.6453 171.952 85.8797C169.834 82.0552 168.775 77.6424 168.775 72.6412C168.775 67.6988 169.863 63.3154 172.04 59.4909C174.217 55.6665 177.189 52.7246 180.954 50.6652C184.72 48.6059 188.927 47.5763 193.575 47.5763C198.223 47.5763 202.43 48.6059 206.196 50.6652C209.961 52.7246 212.933 55.6665 215.11 59.4909C217.287 63.3154 218.375 67.6988 218.375 72.6412C218.375 77.5835 217.257 81.9669 215.021 85.7914C212.786 89.6159 209.726 92.5872 205.843 94.7053C202.018 96.7646 197.782 97.7943 193.134 97.7943ZM193.134 89.0569C195.723 89.0569 198.135 88.4391 200.371 87.2035C202.665 85.9679 204.519 84.1145 205.931 81.6433C207.343 79.1722 208.049 76.1714 208.049 72.6412C208.049 69.1109 207.372 66.1396 206.019 63.7272C204.666 61.256 202.871 59.4027 200.636 58.1671C198.4 56.9315 195.987 56.3137 193.399 56.3137C190.81 56.3137 188.397 56.9315 186.161 58.1671C183.984 59.4027 182.249 61.256 180.954 63.7272C179.66 66.1396 179.013 69.1109 179.013 72.6412C179.013 77.8777 180.337 81.9375 182.984 84.8206C185.691 87.6448 189.074 89.0569 193.134 89.0569ZM238.383 55.4311C239.853 52.9599 241.795 51.0477 244.207 49.6944C246.679 48.2823 249.591 47.5763 252.945 47.5763V57.9905H250.385C246.443 57.9905 243.443 58.9908 241.383 60.9913C239.383 62.9918 238.383 66.4632 238.383 71.4056V97H228.321V48.3706H238.383V55.4311ZM321.06 47.5763C324.885 47.5763 328.297 48.3706 331.298 49.9592C334.358 51.5478 336.741 53.9013 338.447 57.0197C340.212 60.1381 341.095 63.9037 341.095 68.3166V97H331.122V69.8169C331.122 65.4629 330.033 62.1386 327.856 59.8439C325.679 57.4904 322.708 56.3137 318.942 56.3137C315.177 56.3137 312.176 57.4904 309.94 59.8439C307.763 62.1386 306.675 65.4629 306.675 69.8169V97H296.702V69.8169C296.702 65.4629 295.613 62.1386 293.436 59.8439C291.259 57.4904 288.288 56.3137 284.522 56.3137C280.757 56.3137 277.756 57.4904 275.52 59.8439C273.343 62.1386 272.254 65.4629 272.254 69.8169V97H262.193V48.3706H272.254V53.9307C273.902 51.9303 275.991 50.3711 278.521 49.2531C281.051 48.1352 283.757 47.5763 286.64 47.5763C290.524 47.5763 293.995 48.4 297.055 50.0475C300.114 51.6949 302.468 54.0778 304.115 57.1962C305.586 54.2543 307.881 51.9303 310.999 50.224C314.118 48.4588 317.471 47.5763 321.06 47.5763ZM363.959 31.6901V97H353.897V31.6901H363.959ZM382.287 41.9278C380.463 41.9278 378.933 41.31 377.698 40.0744C376.462 38.8389 375.844 37.3091 375.844 35.4851C375.844 33.6611 376.462 32.1313 377.698 30.8958C378.933 29.6602 380.463 29.0424 382.287 29.0424C384.052 29.0424 385.553 29.6602 386.788 30.8958C388.024 32.1313 388.642 33.6611 388.642 35.4851C388.642 37.3091 388.024 38.8389 386.788 40.0744C385.553 41.31 384.052 41.9278 382.287 41.9278ZM387.229 48.3706V97H377.168V48.3706H387.229ZM424.974 47.5763C428.799 47.5763 432.211 48.3706 435.212 49.9592C438.272 51.5478 440.655 53.9013 442.361 57.0197C444.067 60.1381 444.92 63.9037 444.92 68.3166V97H434.947V69.8169C434.947 65.4629 433.859 62.1386 431.682 59.8439C429.505 57.4904 426.534 56.3137 422.768 56.3137C419.002 56.3137 416.002 57.4904 413.766 59.8439C411.589 62.1386 410.5 65.4629 410.5 69.8169V97H400.439V48.3706H410.5V53.9307C412.148 51.9303 414.236 50.3711 416.766 49.2531C419.355 48.1352 422.091 47.5763 424.974 47.5763ZM502.324 71.4938C502.324 73.3178 502.206 74.9653 501.971 76.4362H464.815C465.109 80.3195 466.55 83.4379 469.139 85.7914C471.728 88.1449 474.905 89.3217 478.671 89.3217C484.084 89.3217 487.909 87.0564 490.144 82.5259H501C499.529 86.9976 496.852 90.6749 492.969 93.558C489.144 96.3822 484.378 97.7943 478.671 97.7943C474.023 97.7943 469.845 96.7646 466.139 94.7053C462.491 92.5872 459.608 89.6453 457.489 85.8797C455.43 82.0552 454.4 77.6424 454.4 72.6412C454.4 67.6399 455.401 63.2565 457.401 59.4909C459.46 55.6665 462.314 52.7246 465.962 50.6652C469.669 48.6059 473.905 47.5763 478.671 47.5763C483.26 47.5763 487.35 48.5765 490.939 50.577C494.528 52.5775 497.323 55.4017 499.323 59.0496C501.324 62.6387 502.324 66.7868 502.324 71.4938ZM491.821 68.3166C491.762 64.6098 490.439 61.6385 487.85 59.4027C485.261 57.1668 482.054 56.0489 478.23 56.0489C474.758 56.0489 471.787 57.1668 469.316 59.4027C466.845 61.5797 465.374 64.551 464.903 68.3166H491.821Z" fill="white"/>
<defs>
<linearGradient id="paint0_linear_1_24" x1="67.6179" y1="15" x2="67.4141" y2="50.0053" gradientUnits="userSpaceOnUse">
<stop stop-color="#8BC7FF"/>
<stop offset="1" stop-color="white"/>
</linearGradient>
<linearGradient id="paint1_linear_1_24" x1="62.25" y1="49" x2="61.9462" y2="84.0039" gradientUnits="userSpaceOnUse">
<stop stop-color="#8BC7FF"/>
<stop offset="1" stop-color="white"/>
</linearGradient>
<linearGradient id="paint2_linear_1_24" x1="14.3962" y1="42.25" x2="13.8617" y2="75.9978" gradientUnits="userSpaceOnUse">
<stop stop-color="#8BC7FF"/>
<stop offset="1" stop-color="white"/>
</linearGradient>
<linearGradient id="paint3_linear_1_24" x1="22.3962" y1="76.25" x2="21.8617" y2="109.998" gradientUnits="userSpaceOnUse">
<stop stop-color="#8BC7FF"/>
<stop offset="1" stop-color="white"/>
</linearGradient>
</defs>
</svg>
